<?xml version="1.0" encoding="utf-8"?>
<!-- Generator: Adobe Illustrator 16.0.0, SVG Export Plug-In . SVG Version: 6.00 Build 0)  -->
<!DOCTYPE svg PUBLIC "-//W3C//DTD SVG 1.1//EN" "http://www.w3.org/Graphics/SVG/1.1/DTD/svg11.dtd">
<svg version="1.1" id="Layer_1" xmlns="http://www.w3.org/2000/svg" xmlns:xlink="http://www.w3.org/1999/xlink" x="0px" y="0px"
	 width="500px" height="145.6895px" viewBox="0 0 1000 291.379" enable-background="new 0 0 1000 291.379" xml:space="preserve">
<g>
	<path fill="#94A3B8" d="M191.102,105.182c18.814,13.442,41.862,21.351,66.755,21.351V78.656c-4.711,0.001-9.41-0.49-14.019-1.466
		v37.686c-24.891,0-47.936-7.909-66.755-21.35v97.703c0,48.876-39.642,88.495-88.54,88.495c-18.245,0-35.203-5.513-49.29-14.968
		c16.078,16.431,38.5,26.624,63.306,26.624c48.901,0,88.545-39.619,88.545-88.497v-97.701H191.102z M208.396,56.88
		c-9.615-10.499-15.928-24.067-17.294-39.067v-6.158h-13.285C181.161,30.72,192.567,47.008,208.396,56.88L208.396,56.88z
		 M70.181,227.25c-5.372-7.04-8.275-15.652-8.262-24.507c0-22.354,18.132-40.479,40.502-40.479
		c4.169-0.001,8.313,0.637,12.286,1.897v-48.947c-4.643-0.636-9.329-0.906-14.013-0.807v38.098c-3.976-1.26-8.122-1.9-12.292-1.896
		c-22.37,0-40.501,18.123-40.501,40.48C47.901,206.897,56.964,220.583,70.181,227.25z"/>
	<path fill="#94A3B8" d="M177.083,93.525c18.819,13.441,41.864,21.35,66.755,21.35V77.189c-13.894-2.958-26.194-10.215-35.442-20.309
		c-15.83-9.873-27.235-26.161-30.579-45.225h-34.896v191.226c-0.079,22.293-18.18,40.344-40.502,40.344
		c-13.154,0-24.84-6.267-32.241-15.975c-13.216-6.667-22.279-20.354-22.279-36.16c0-22.355,18.131-40.48,40.501-40.48
		c4.286,0,8.417,0.667,12.292,1.896v-38.098c-48.039,0.992-86.674,40.224-86.674,88.474c0,24.086,9.621,45.921,25.236,61.875
		c14.087,9.454,31.045,14.968,49.29,14.968c48.899,0,88.54-39.621,88.54-88.496V93.525L177.083,93.525z"/>
	<path fill="#94A3B8" d="M310.062,85.572v31.853h37.311v121.374h37.326V118.285h30.372l10.414-32.712H310.062z M615.544,85.572v31.853h37.311
		v121.374h37.326V118.285h30.371l10.413-32.712H615.544z M432.434,103.648c0-9.981,8.146-18.076,18.21-18.076
		c10.073,0,18.228,8.095,18.228,18.076c0,9.982-8.15,18.077-18.228,18.077C440.58,121.72,432.434,113.63,432.434,103.648z
		 M432.434,134.641h36.438v104.158h-36.438V134.641z M484.496,85.572v153.226h36.452v-39.594l11.283-10.339l35.577,50.793h39.05
		l-51.207-74.03l45.997-44.768h-44.258l-36.442,36.153V85.572H484.496z M877.623,85.572v153.226h36.457v-39.594l11.278-10.339
		l35.587,50.793H1000l-51.207-74.03l45.995-44.768h-44.256l-36.452,36.153V85.572H877.623z"/>
	<path fill="#94A3B8" d="M792.578,239.659c34.988,0,63.358-28.136,63.358-62.84c0-34.703-28.37-62.844-63.358-62.844h-0.865
		c-34.99,0-63.355,28.14-63.355,62.844s28.365,62.84,63.355,62.84H792.578z M761.336,176.819c0-16.881,13.8-30.555,30.817-30.555
		c17.005,0,30.804,13.674,30.804,30.555s-13.799,30.563-30.804,30.563C775.136,207.379,761.336,193.7,761.336,176.819z"/>
</g>
</svg>
